<?xml version="1.0" encoding="UTF-8" standalone="no"?>
<!DOCTYPE svg PUBLIC "-//W3C//DTD SVG 1.1//EN"
 "http://www.w3.org/Graphics/SVG/1.1/DTD/svg11.dtd">
<!-- Generated by graphviz version 2.38.0 (20140413.2041)
 -->
<!-- Title: G Pages: 1 -->
<svg width="187pt" height="186pt"
 viewBox="0.00 0.00 187.00 186.00" xmlns="http://www.w3.org/2000/svg" xmlns:xlink="http://www.w3.org/1999/xlink">
<g id="graph0" class="graph" transform="scale(1 1) rotate(0) translate(4 182)">
<title>G</title>
<polygon fill="white" stroke="none" points="-4,4 -4,-182 183,-182 183,4 -4,4"/>
<g id="clust1" class="cluster"><title>cluster_Global</title>
<path fill="none" stroke="gray" d="M20,-8C20,-8 159,-8 159,-8 165,-8 171,-14 171,-20 171,-20 171,-158 171,-158 171,-164 165,-170 159,-170 159,-170 20,-170 20,-170 14,-170 8,-164 8,-158 8,-158 8,-20 8,-20 8,-14 14,-8 20,-8"/>
<text text-anchor="middle" x="89.5" y="-157.2" font-family="Times,serif" font-size="11.00" fill="gray">Global</text>
</g>
<g id="clust2" class="cluster"><title>cluster_\Chadicus</title>
<path fill="none" stroke="gray" d="M28,-16C28,-16 151,-16 151,-16 157,-16 163,-22 163,-28 163,-28 163,-130 163,-130 163,-136 157,-142 151,-142 151,-142 28,-142 28,-142 22,-142 16,-136 16,-130 16,-130 16,-28 16,-28 16,-22 22,-16 28,-16"/>
<text text-anchor="middle" x="89.5" y="-129.2" font-family="Times,serif" font-size="11.00" fill="gray">Chadicus</text>
</g>
<!-- \\Chadicus\\FunctionRegistry -->
<g id="node1" class="node"><title>\\Chadicus\\FunctionRegistry</title>
<polygon fill="none" stroke="black" points="152,-114 27,-114 27,-78 152,-78 152,-114"/>
<text text-anchor="middle" x="89.5" y="-93.2" font-family="Courier,monospace" font-size="11.00">FunctionRegistry</text>
</g>
<!-- \\Chadicus\\ArrayAssertsTrait -->
<g id="node2" class="node"><title>\\Chadicus\\ArrayAssertsTrait</title>
<polygon fill="none" stroke="black" points="155,-60 24,-60 24,-24 155,-24 155,-60"/>
<text text-anchor="middle" x="89.5" y="-39.2" font-family="Courier,monospace" font-size="11.00">ArrayAssertsTrait</text>
</g>
</g>
</svg>
